<!DOCTYPE svg PUBLIC "-//W3C//DTD SVG 1.1//EN" "http://www.w3.org/Graphics/SVG/1.1/DTD/svg11.dtd">
<!-- Uploaded to: SVG Repo, www.svgrepo.com, Transformed by: SVG Repo Mixer Tools -->
<svg fill="#000000" width="80px" height="80px" viewBox="-3.6 -3.6 31.20 31.20" id="pi" data-name="Flat Line" xmlns="http://www.w3.org/2000/svg" class="icon flat-line">
<g id="SVGRepo_bgCarrier" stroke-width="0">
<path transform="translate(-3.6, -3.6), scale(1.9500000000000002)" fill="#000000" d="M9.166.33a2.25 2.25 0 00-2.332 0l-5.25 3.182A2.25 2.25 0 00.5 5.436v5.128a2.25 2.25 0 001.084 1.924l5.25 3.182a2.25 2.25 0 002.332 0l5.25-3.182a2.25 2.25 0 001.084-1.924V5.436a2.25 2.25 0 00-1.084-1.924L9.166.33z" strokewidth="0"/>
</g>
<g id="SVGRepo_tracerCarrier" stroke-linecap="round" stroke-linejoin="round"/>
<g id="SVGRepo_iconCarrier">
<path id="primary" d="M6,21H6a6.84,6.84,0,0,0,2-4.83V4" style="fill: none; stroke: #ffffff; stroke-linecap: round; stroke-linejoin: round; stroke-width:0.8160000000000001;"/>
<path id="primary-2" data-name="primary" d="M16,4V18a3,3,0,0,0,3,3h0" style="fill: none; stroke: #ffffff; stroke-linecap: round; stroke-linejoin: round; stroke-width:0.8160000000000001;"/>
<path id="primary-3" data-name="primary" d="M4,6A4.33,4.33,0,0,1,8,4h7c2,0,4,0,5-1" style="fill: none; stroke: #ffffff; stroke-linecap: round; stroke-linejoin: round; stroke-width:0.8160000000000001;"/>
</g>
</svg>